<?xml version="1.0" standalone="no"?>
<!DOCTYPE svg PUBLIC "-//W3C//DTD SVG 20010904//EN"
 "http://www.w3.org/TR/2001/REC-SVG-20010904/DTD/svg10.dtd">
<svg version="1.0" xmlns="http://www.w3.org/2000/svg"
 width="270.000000pt" height="270.000000pt" viewBox="0 0 270.000000 270.000000"
 preserveAspectRatio="xMidYMid meet">
<metadata>
Created by potrace 1.11, written by Peter Selinger 2001-2013
</metadata>
<g transform="translate(0.000000,270.000000) scale(0.100000,-0.100000)"
fill="#000000" stroke="none">
<path d="M100 2694 c0 -3 17 -31 39 -62 34 -50 42 -76 71 -215 l33 -159 32 6
32 6 18 -67 c15 -55 31 -82 88 -152 77 -94 75 -90 107 -216 l23 -90 -122 -280
c-79 -182 -130 -287 -146 -300 -13 -11 -40 -53 -59 -93 -19 -40 -40 -80 -47
-88 -10 -12 -7 -20 16 -44 l27 -28 -32 -17 c-18 -9 -50 -23 -72 -31 -38 -13
-40 -13 -45 6 -6 24 -5 23 -38 8 l-27 -12 4 -188 3 -188 145 -145 c80 -80 148
-145 152 -145 13 0 9 38 -13 123 -31 122 -40 198 -26 216 9 11 9 15 0 18 -7 3
-13 9 -13 15 0 7 17 8 49 4 43 -6 49 -4 54 13 4 17 11 19 43 14 21 -3 57 -19
79 -35 l42 -29 124 16 c217 28 270 37 267 47 -4 11 -48 36 -150 83 -42 20 -91
49 -109 66 -17 16 -35 29 -40 29 -19 0 -7 20 27 47 20 15 44 45 54 68 13 29
96 115 293 305 151 146 275 272 276 281 2 32 -70 299 -119 443 -47 138 -129
335 -192 459 l-29 58 34 14 c18 7 45 17 60 20 15 4 30 11 33 17 3 5 -20 54
-51 108 l-56 100 -420 0 c-230 0 -419 -2 -419 -6z"/>
<path d="M1960 2632 c-23 -43 -66 -100 -126 -162 -197 -206 -276 -344 -394
-687 -28 -81 -36 -115 -27 -118 6 -2 44 -11 82 -21 39 -9 126 -42 195 -74 131
-61 236 -100 269 -100 21 0 17 8 88 -205 33 -98 81 -207 160 -363 122 -241
127 -256 95 -340 -30 -78 -80 -137 -135 -158 -56 -22 -72 -37 -63 -60 6 -14
21 -16 114 -12 59 3 115 9 125 13 10 4 33 38 52 76 33 64 65 99 92 99 16 0 33
-63 33 -122 0 -27 4 -48 9 -48 12 0 21 36 21 86 0 22 9 67 20 100 27 75 20
109 -32 175 -22 28 -51 79 -65 112 l-24 60 74 76 c41 42 78 85 81 96 3 11 -3
52 -14 90 -24 85 -24 87 -2 115 l18 22 47 -36 c56 -42 61 -29 17 41 -16 26
-30 52 -30 58 0 29 -52 85 -91 96 -38 12 -39 14 -34 43 7 33 26 108 50 196 52
189 71 403 67 758 l-3 262 -317 0 -317 0 -35 -68z m456 -1429 c10 -21 23 -70
29 -109 10 -63 10 -76 -5 -105 l-17 -33 -14 25 c-14 24 -30 271 -18 263 4 -2
15 -21 25 -41z"/>
</g>
</svg>
